<?xml version="1.0" standalone="no"?>
<!DOCTYPE svg PUBLIC "-//W3C//DTD SVG 20010904//EN"
 "http://www.w3.org/TR/2001/REC-SVG-20010904/DTD/svg10.dtd">
<svg version="1.0" xmlns="http://www.w3.org/2000/svg"
 width="700.000000pt" height="700.000000pt" viewBox="0 0 700.000000 700.000000"
 preserveAspectRatio="xMidYMid meet">
<metadata>
Created by potrace 1.14, written by Peter Selinger 2001-2017
</metadata>
<g transform="translate(0.000000,700.000000) scale(0.100000,-0.100000)"
fill="#000000" stroke="none">
<path d="M4448 6995 c-1 -2 -34 -6 -73 -9 -67 -6 -100 -10 -155 -21 -14 -3
-38 -8 -55 -11 -59 -10 -201 -47 -275 -71 -373 -125 -677 -314 -955 -597 -152
-155 -224 -246 -334 -420 -146 -233 -278 -584 -315 -836 -9 -68 -17 -126 -23
-175 -3 -27 -6 -625 -8 -1327 l-2 -1278 1028 0 1029 0 -4 -32 c-3 -18 -7 -58
-11 -88 -18 -176 -94 -431 -182 -610 -293 -598 -875 -1007 -1531 -1077 -91
-10 -298 -10 -403 0 -341 31 -715 182 -992 401 -346 273 -578 632 -687 1065
-29 113 -33 136 -48 289 -9 80 -8 317 1 372 3 19 9 58 12 85 21 161 96 399
180 567 48 96 165 285 197 320 7 7 31 36 53 63 57 71 178 190 265 260 77 62
177 135 185 135 2 0 21 11 41 25 95 65 338 167 489 207 l90 24 3 222 2 222
-22 0 c-59 0 -338 -81 -473 -137 -153 -63 -378 -188 -480 -266 -135 -102 -158
-122 -268 -227 -283 -271 -478 -575 -605 -945 -52 -153 -87 -317 -110 -515
-13 -119 -7 -447 11 -565 22 -140 26 -161 39 -210 5 -22 12 -47 13 -55 35
-156 140 -413 237 -585 83 -146 236 -347 360 -475 178 -184 427 -368 608 -452
25 -11 52 -26 60 -33 21 -16 259 -109 345 -134 97 -28 226 -57 315 -71 41 -6
86 -14 100 -16 47 -9 425 -12 490 -4 36 5 92 11 124 15 33 3 62 8 65 10 3 1
23 6 43 9 32 5 89 17 148 31 177 43 403 136 590 243 52 30 223 142 230 152 3
3 21 17 40 30 52 36 93 73 216 195 217 213 376 443 496 715 86 192 145 393
173 585 4 22 8 47 10 55 15 57 19 342 20 1445 l0 1250 -1005 2 c-1140 2 -1053
1 -1046 11 2 4 7 34 10 67 6 66 9 82 32 200 44 224 165 504 299 695 201 287
465 513 759 650 127 59 249 106 301 116 6 1 37 9 70 17 58 16 72 18 145 31 19
3 49 9 65 12 53 10 398 13 465 3 78 -11 117 -17 150 -24 14 -2 39 -7 55 -10
192 -38 471 -158 660 -286 131 -89 141 -97 267 -218 167 -161 279 -315 388
-536 102 -207 164 -414 189 -640 9 -84 7 -395 -4 -455 -3 -19 -11 -62 -16 -95
-85 -507 -409 -994 -849 -1277 -191 -123 -419 -222 -607 -263 -18 -3 -34 -12
-34 -18 -1 -7 -2 -108 -3 -224 -1 -238 -7 -221 74 -202 25 6 56 13 70 15 14 3
63 16 110 30 700 210 1258 712 1534 1381 56 136 125 378 141 493 3 25 10 70
16 100 16 83 18 449 4 565 -21 168 -26 195 -60 330 -164 650 -602 1201 -1205
1518 -228 120 -539 218 -764 243 -28 3 -58 8 -66 11 -16 6 -436 14 -442 8z
m-138 -3496 l0 -809 -809 0 -809 0 0 809 1 809 808 0 809 0 0 -809z"/>
</g>
</svg>
